<mxfile host="Electron" agent="Mozilla/5.0 (Macintosh; Intel Mac OS X 10_15_7) AppleWebKit/537.36 (KHTML, like Gecko) draw.io/26.0.9 Chrome/128.0.6613.186 Electron/32.2.5 Safari/537.36" version="26.0.9" pages="2">
  <diagram id="qOIGzUAIzcFW7VjD5GIF" name="control_volume">
    <mxGraphModel dx="177" dy="126" grid="1" gridSize="10" guides="1" tooltips="1" connect="1" arrows="1" fold="1" page="1" pageScale="1" pageWidth="1390" pageHeight="360" math="0" shadow="0">
      <root>
        <mxCell id="0" />
        <mxCell id="1" parent="0" />
        <mxCell id="aQ4Ro0TlBogwRnAUDGnx-40" value="" style="rounded=0;whiteSpace=wrap;html=1;fillColor=#d5e8d4;strokeColor=#82b366;fillOpacity=100;" vertex="1" parent="1">
          <mxGeometry x="360" y="80" width="40" height="40" as="geometry" />
        </mxCell>
        <mxCell id="aQ4Ro0TlBogwRnAUDGnx-39" value="" style="rounded=0;whiteSpace=wrap;html=1;fillColor=#dae8fc;strokeColor=#6c8ebf;fillOpacity=80;" vertex="1" parent="1">
          <mxGeometry x="320" y="100" width="40" height="40" as="geometry" />
        </mxCell>
        <mxCell id="aQ4Ro0TlBogwRnAUDGnx-38" value="" style="rounded=0;whiteSpace=wrap;html=1;fillColor=#f8cecc;strokeColor=#b85450;fillOpacity=80;" vertex="1" parent="1">
          <mxGeometry x="340" y="120" width="40" height="40" as="geometry" />
        </mxCell>
        <mxCell id="aQ4Ro0TlBogwRnAUDGnx-1" value="" style="endArrow=none;dashed=1;html=1;rounded=0;strokeWidth=0.3;" edge="1" parent="1">
          <mxGeometry width="50" height="50" relative="1" as="geometry">
            <mxPoint x="300" y="140" as="sourcePoint" />
            <mxPoint x="420" y="140" as="targetPoint" />
          </mxGeometry>
        </mxCell>
        <mxCell id="aQ4Ro0TlBogwRnAUDGnx-2" value="" style="endArrow=none;html=1;rounded=0;strokeWidth=0.3;" edge="1" parent="1">
          <mxGeometry width="50" height="50" relative="1" as="geometry">
            <mxPoint x="300" y="120" as="sourcePoint" />
            <mxPoint x="420" y="120" as="targetPoint" />
          </mxGeometry>
        </mxCell>
        <mxCell id="aQ4Ro0TlBogwRnAUDGnx-3" value="" style="endArrow=none;html=1;rounded=0;strokeWidth=0.3;" edge="1" parent="1">
          <mxGeometry width="50" height="50" relative="1" as="geometry">
            <mxPoint x="300" y="160" as="sourcePoint" />
            <mxPoint x="420" y="160" as="targetPoint" />
          </mxGeometry>
        </mxCell>
        <mxCell id="aQ4Ro0TlBogwRnAUDGnx-4" value="" style="endArrow=none;html=1;rounded=0;strokeWidth=0.3;" edge="1" parent="1">
          <mxGeometry width="50" height="50" relative="1" as="geometry">
            <mxPoint x="320" y="60" as="sourcePoint" />
            <mxPoint x="320" y="180" as="targetPoint" />
          </mxGeometry>
        </mxCell>
        <mxCell id="aQ4Ro0TlBogwRnAUDGnx-5" value="" style="endArrow=none;html=1;rounded=0;strokeWidth=0.3;" edge="1" parent="1">
          <mxGeometry width="50" height="50" relative="1" as="geometry">
            <mxPoint x="360" y="60" as="sourcePoint" />
            <mxPoint x="360" y="180" as="targetPoint" />
          </mxGeometry>
        </mxCell>
        <mxCell id="aQ4Ro0TlBogwRnAUDGnx-6" value="" style="endArrow=none;dashed=1;html=1;rounded=0;strokeWidth=0.3;" edge="1" parent="1">
          <mxGeometry width="50" height="50" relative="1" as="geometry">
            <mxPoint x="340" y="180" as="sourcePoint" />
            <mxPoint x="340" y="60" as="targetPoint" />
          </mxGeometry>
        </mxCell>
        <mxCell id="aQ4Ro0TlBogwRnAUDGnx-7" value="" style="endArrow=classic;html=1;rounded=0;strokeColor=#CC0000;" edge="1" parent="1">
          <mxGeometry width="50" height="50" relative="1" as="geometry">
            <mxPoint x="310" y="140" as="sourcePoint" />
            <mxPoint x="330" y="140" as="targetPoint" />
          </mxGeometry>
        </mxCell>
        <mxCell id="aQ4Ro0TlBogwRnAUDGnx-8" value="" style="endArrow=classic;html=1;rounded=0;strokeColor=#CC0000;" edge="1" parent="1">
          <mxGeometry width="50" height="50" relative="1" as="geometry">
            <mxPoint x="350" y="140" as="sourcePoint" />
            <mxPoint x="370" y="140" as="targetPoint" />
          </mxGeometry>
        </mxCell>
        <mxCell id="aQ4Ro0TlBogwRnAUDGnx-9" value="" style="endArrow=classic;html=1;rounded=0;strokeColor=#0000FF;" edge="1" parent="1">
          <mxGeometry width="50" height="50" relative="1" as="geometry">
            <mxPoint x="340" y="90" as="sourcePoint" />
            <mxPoint x="340" y="70" as="targetPoint" />
          </mxGeometry>
        </mxCell>
        <mxCell id="aQ4Ro0TlBogwRnAUDGnx-10" value="" style="endArrow=classic;html=1;rounded=0;strokeColor=#0000FF;" edge="1" parent="1">
          <mxGeometry width="50" height="50" relative="1" as="geometry">
            <mxPoint x="340" y="130" as="sourcePoint" />
            <mxPoint x="340" y="110" as="targetPoint" />
          </mxGeometry>
        </mxCell>
        <mxCell id="aQ4Ro0TlBogwRnAUDGnx-11" value="" style="ellipse;whiteSpace=wrap;html=1;aspect=fixed;fillColor=#00FF00;strokeColor=#00FF00;" vertex="1" parent="1">
          <mxGeometry x="339" y="139" width="3" height="3" as="geometry" />
        </mxCell>
        <mxCell id="aQ4Ro0TlBogwRnAUDGnx-12" value="" style="endArrow=none;dashed=1;html=1;rounded=0;strokeWidth=0.3;" edge="1" parent="1">
          <mxGeometry width="50" height="50" relative="1" as="geometry">
            <mxPoint x="300" y="180" as="sourcePoint" />
            <mxPoint x="300" y="60" as="targetPoint" />
          </mxGeometry>
        </mxCell>
        <mxCell id="aQ4Ro0TlBogwRnAUDGnx-13" value="" style="endArrow=none;dashed=1;html=1;rounded=0;strokeWidth=0.3;" edge="1" parent="1">
          <mxGeometry width="50" height="50" relative="1" as="geometry">
            <mxPoint x="380" y="180" as="sourcePoint" />
            <mxPoint x="380" y="60" as="targetPoint" />
          </mxGeometry>
        </mxCell>
        <mxCell id="aQ4Ro0TlBogwRnAUDGnx-14" value="" style="endArrow=none;dashed=1;html=1;rounded=0;strokeWidth=0.3;" edge="1" parent="1">
          <mxGeometry width="50" height="50" relative="1" as="geometry">
            <mxPoint x="300" y="60" as="sourcePoint" />
            <mxPoint x="420" y="60" as="targetPoint" />
          </mxGeometry>
        </mxCell>
        <mxCell id="aQ4Ro0TlBogwRnAUDGnx-15" value="" style="endArrow=none;dashed=1;html=1;rounded=0;strokeWidth=0.3;" edge="1" parent="1">
          <mxGeometry width="50" height="50" relative="1" as="geometry">
            <mxPoint x="300" y="100" as="sourcePoint" />
            <mxPoint x="420" y="100" as="targetPoint" />
          </mxGeometry>
        </mxCell>
        <mxCell id="aQ4Ro0TlBogwRnAUDGnx-26" value="" style="endArrow=none;html=1;rounded=0;strokeWidth=0.3;" edge="1" parent="1">
          <mxGeometry width="50" height="50" relative="1" as="geometry">
            <mxPoint x="400" y="59.5" as="sourcePoint" />
            <mxPoint x="400" y="180" as="targetPoint" />
          </mxGeometry>
        </mxCell>
        <mxCell id="aQ4Ro0TlBogwRnAUDGnx-27" value="" style="endArrow=classic;html=1;rounded=0;strokeColor=#CC0000;" edge="1" parent="1">
          <mxGeometry width="50" height="50" relative="1" as="geometry">
            <mxPoint x="390" y="140.39" as="sourcePoint" />
            <mxPoint x="410" y="140.39" as="targetPoint" />
          </mxGeometry>
        </mxCell>
        <mxCell id="aQ4Ro0TlBogwRnAUDGnx-28" value="" style="ellipse;whiteSpace=wrap;html=1;aspect=fixed;fillColor=#00FF00;strokeColor=#00FF00;" vertex="1" parent="1">
          <mxGeometry x="379" y="139" width="3" height="3" as="geometry" />
        </mxCell>
        <mxCell id="aQ4Ro0TlBogwRnAUDGnx-29" value="" style="endArrow=classic;html=1;rounded=0;strokeColor=#0000FF;" edge="1" parent="1">
          <mxGeometry width="50" height="50" relative="1" as="geometry">
            <mxPoint x="380" y="90" as="sourcePoint" />
            <mxPoint x="380" y="70" as="targetPoint" />
          </mxGeometry>
        </mxCell>
        <mxCell id="aQ4Ro0TlBogwRnAUDGnx-30" value="" style="endArrow=classic;html=1;rounded=0;strokeColor=#0000FF;" edge="1" parent="1">
          <mxGeometry width="50" height="50" relative="1" as="geometry">
            <mxPoint x="380.39" y="130" as="sourcePoint" />
            <mxPoint x="380.39" y="110" as="targetPoint" />
          </mxGeometry>
        </mxCell>
        <mxCell id="aQ4Ro0TlBogwRnAUDGnx-31" value="" style="endArrow=none;dashed=1;html=1;rounded=0;strokeWidth=0.3;" edge="1" parent="1">
          <mxGeometry width="50" height="50" relative="1" as="geometry">
            <mxPoint x="420" y="180" as="sourcePoint" />
            <mxPoint x="420" y="59.5" as="targetPoint" />
          </mxGeometry>
        </mxCell>
        <mxCell id="aQ4Ro0TlBogwRnAUDGnx-32" value="" style="endArrow=classic;html=1;rounded=0;strokeColor=#CC0000;" edge="1" parent="1">
          <mxGeometry width="50" height="50" relative="1" as="geometry">
            <mxPoint x="310" y="100" as="sourcePoint" />
            <mxPoint x="330" y="100" as="targetPoint" />
          </mxGeometry>
        </mxCell>
        <mxCell id="aQ4Ro0TlBogwRnAUDGnx-33" value="" style="endArrow=classic;html=1;rounded=0;strokeColor=#CC0000;" edge="1" parent="1">
          <mxGeometry width="50" height="50" relative="1" as="geometry">
            <mxPoint x="350" y="100" as="sourcePoint" />
            <mxPoint x="370" y="100" as="targetPoint" />
          </mxGeometry>
        </mxCell>
        <mxCell id="aQ4Ro0TlBogwRnAUDGnx-34" value="" style="endArrow=classic;html=1;rounded=0;strokeColor=#CC0000;" edge="1" parent="1">
          <mxGeometry width="50" height="50" relative="1" as="geometry">
            <mxPoint x="390" y="100.38999999999999" as="sourcePoint" />
            <mxPoint x="410" y="100.38999999999999" as="targetPoint" />
          </mxGeometry>
        </mxCell>
        <mxCell id="aQ4Ro0TlBogwRnAUDGnx-35" value="" style="ellipse;whiteSpace=wrap;html=1;aspect=fixed;fillColor=#00FF00;strokeColor=#00FF00;" vertex="1" parent="1">
          <mxGeometry x="339" y="99" width="3" height="3" as="geometry" />
        </mxCell>
        <mxCell id="aQ4Ro0TlBogwRnAUDGnx-36" value="" style="ellipse;whiteSpace=wrap;html=1;aspect=fixed;fillColor=#00FF00;strokeColor=#00FF00;" vertex="1" parent="1">
          <mxGeometry x="379" y="99" width="3" height="3" as="geometry" />
        </mxCell>
        <mxCell id="aQ4Ro0TlBogwRnAUDGnx-37" value="" style="endArrow=none;html=1;rounded=0;strokeWidth=0.3;" edge="1" parent="1">
          <mxGeometry width="50" height="50" relative="1" as="geometry">
            <mxPoint x="300" y="80" as="sourcePoint" />
            <mxPoint x="420" y="80" as="targetPoint" />
          </mxGeometry>
        </mxCell>
        <mxCell id="aQ4Ro0TlBogwRnAUDGnx-42" value="" style="endArrow=none;dashed=1;html=1;rounded=0;strokeWidth=0.3;" edge="1" parent="1">
          <mxGeometry width="50" height="50" relative="1" as="geometry">
            <mxPoint x="300" y="180" as="sourcePoint" />
            <mxPoint x="420" y="180" as="targetPoint" />
          </mxGeometry>
        </mxCell>
        <mxCell id="aQ4Ro0TlBogwRnAUDGnx-43" value="" style="endArrow=classic;html=1;rounded=0;strokeColor=#0000FF;" edge="1" parent="1">
          <mxGeometry width="50" height="50" relative="1" as="geometry">
            <mxPoint x="339.72" y="170" as="sourcePoint" />
            <mxPoint x="339.72" y="150" as="targetPoint" />
          </mxGeometry>
        </mxCell>
        <mxCell id="aQ4Ro0TlBogwRnAUDGnx-44" value="" style="endArrow=classic;html=1;rounded=0;strokeColor=#0000FF;" edge="1" parent="1">
          <mxGeometry width="50" height="50" relative="1" as="geometry">
            <mxPoint x="380.11" y="170" as="sourcePoint" />
            <mxPoint x="380.11" y="150" as="targetPoint" />
          </mxGeometry>
        </mxCell>
      </root>
    </mxGraphModel>
  </diagram>
  <diagram name="u_grid" id="4s9TKoa6KT6RYETwxB4G">
    <mxGraphModel dx="272" dy="193" grid="1" gridSize="10" guides="1" tooltips="1" connect="1" arrows="1" fold="1" page="1" pageScale="1" pageWidth="1390" pageHeight="360" math="0" shadow="0">
      <root>
        <mxCell id="yorJfVh0kJ0Bfh7YAZNg-0" />
        <mxCell id="yorJfVh0kJ0Bfh7YAZNg-1" parent="yorJfVh0kJ0Bfh7YAZNg-0" />
        <mxCell id="EkK7eUQm3t-pUeyv8moK-10" value="" style="endArrow=none;dashed=1;html=1;rounded=0;strokeWidth=0.3;" parent="yorJfVh0kJ0Bfh7YAZNg-1" edge="1">
          <mxGeometry width="50" height="50" relative="1" as="geometry">
            <mxPoint x="300" y="140" as="sourcePoint" />
            <mxPoint x="460" y="140" as="targetPoint" />
          </mxGeometry>
        </mxCell>
        <mxCell id="EkK7eUQm3t-pUeyv8moK-0" value="" style="endArrow=none;html=1;rounded=0;strokeWidth=0.3;" parent="yorJfVh0kJ0Bfh7YAZNg-1" edge="1">
          <mxGeometry width="50" height="50" relative="1" as="geometry">
            <mxPoint x="300" y="120" as="sourcePoint" />
            <mxPoint x="460" y="120" as="targetPoint" />
          </mxGeometry>
        </mxCell>
        <mxCell id="EkK7eUQm3t-pUeyv8moK-1" value="" style="endArrow=none;html=1;rounded=0;strokeWidth=0.3;" parent="yorJfVh0kJ0Bfh7YAZNg-1" edge="1">
          <mxGeometry width="50" height="50" relative="1" as="geometry">
            <mxPoint x="300" y="160" as="sourcePoint" />
            <mxPoint x="460" y="160" as="targetPoint" />
          </mxGeometry>
        </mxCell>
        <mxCell id="EkK7eUQm3t-pUeyv8moK-2" value="" style="endArrow=none;html=1;rounded=0;strokeWidth=0.3;" parent="yorJfVh0kJ0Bfh7YAZNg-1" edge="1">
          <mxGeometry width="50" height="50" relative="1" as="geometry">
            <mxPoint x="320" y="40" as="sourcePoint" />
            <mxPoint x="320" y="200" as="targetPoint" />
          </mxGeometry>
        </mxCell>
        <mxCell id="EkK7eUQm3t-pUeyv8moK-3" value="" style="endArrow=none;html=1;rounded=0;strokeWidth=0.3;" parent="yorJfVh0kJ0Bfh7YAZNg-1" edge="1">
          <mxGeometry width="50" height="50" relative="1" as="geometry">
            <mxPoint x="360" y="40" as="sourcePoint" />
            <mxPoint x="360" y="200" as="targetPoint" />
          </mxGeometry>
        </mxCell>
        <mxCell id="EkK7eUQm3t-pUeyv8moK-4" value="" style="endArrow=none;dashed=1;html=1;rounded=0;strokeWidth=0.3;" parent="yorJfVh0kJ0Bfh7YAZNg-1" edge="1">
          <mxGeometry width="50" height="50" relative="1" as="geometry">
            <mxPoint x="340" y="200" as="sourcePoint" />
            <mxPoint x="340" y="40" as="targetPoint" />
          </mxGeometry>
        </mxCell>
        <mxCell id="EkK7eUQm3t-pUeyv8moK-6" value="" style="endArrow=classic;html=1;rounded=0;strokeColor=#CC0000;" parent="yorJfVh0kJ0Bfh7YAZNg-1" edge="1">
          <mxGeometry width="50" height="50" relative="1" as="geometry">
            <mxPoint x="390" y="140.41" as="sourcePoint" />
            <mxPoint x="410" y="140.41" as="targetPoint" />
          </mxGeometry>
        </mxCell>
        <mxCell id="EkK7eUQm3t-pUeyv8moK-7" value="" style="endArrow=classic;html=1;rounded=0;strokeColor=#CC0000;" parent="yorJfVh0kJ0Bfh7YAZNg-1" edge="1">
          <mxGeometry width="50" height="50" relative="1" as="geometry">
            <mxPoint x="350" y="140" as="sourcePoint" />
            <mxPoint x="370" y="140" as="targetPoint" />
          </mxGeometry>
        </mxCell>
        <mxCell id="EkK7eUQm3t-pUeyv8moK-13" value="" style="endArrow=none;dashed=1;html=1;rounded=0;strokeWidth=0.3;" parent="yorJfVh0kJ0Bfh7YAZNg-1" edge="1">
          <mxGeometry width="50" height="50" relative="1" as="geometry">
            <mxPoint x="300" y="200" as="sourcePoint" />
            <mxPoint x="300" y="40" as="targetPoint" />
          </mxGeometry>
        </mxCell>
        <mxCell id="EkK7eUQm3t-pUeyv8moK-14" value="" style="endArrow=none;dashed=1;html=1;rounded=0;strokeWidth=0.3;" parent="yorJfVh0kJ0Bfh7YAZNg-1" edge="1">
          <mxGeometry width="50" height="50" relative="1" as="geometry">
            <mxPoint x="380" y="200" as="sourcePoint" />
            <mxPoint x="380" y="40" as="targetPoint" />
          </mxGeometry>
        </mxCell>
        <mxCell id="EkK7eUQm3t-pUeyv8moK-15" value="" style="endArrow=none;dashed=1;html=1;rounded=0;strokeWidth=0.3;" parent="yorJfVh0kJ0Bfh7YAZNg-1" edge="1">
          <mxGeometry width="50" height="50" relative="1" as="geometry">
            <mxPoint x="300" y="180" as="sourcePoint" />
            <mxPoint x="460" y="180" as="targetPoint" />
          </mxGeometry>
        </mxCell>
        <mxCell id="EkK7eUQm3t-pUeyv8moK-16" value="" style="endArrow=none;dashed=1;html=1;rounded=0;strokeWidth=0.3;" parent="yorJfVh0kJ0Bfh7YAZNg-1" edge="1">
          <mxGeometry width="50" height="50" relative="1" as="geometry">
            <mxPoint x="300" y="100" as="sourcePoint" />
            <mxPoint x="460" y="100" as="targetPoint" />
          </mxGeometry>
        </mxCell>
        <mxCell id="ECVVcTKi_iceg_Oi6nhi-0" value="" style="endArrow=none;html=1;rounded=0;strokeWidth=0.3;" edge="1" parent="yorJfVh0kJ0Bfh7YAZNg-1">
          <mxGeometry width="50" height="50" relative="1" as="geometry">
            <mxPoint x="300" y="80" as="sourcePoint" />
            <mxPoint x="460" y="80" as="targetPoint" />
          </mxGeometry>
        </mxCell>
        <mxCell id="ECVVcTKi_iceg_Oi6nhi-1" value="" style="endArrow=none;dashed=1;html=1;rounded=0;strokeWidth=0.3;" edge="1" parent="yorJfVh0kJ0Bfh7YAZNg-1">
          <mxGeometry width="50" height="50" relative="1" as="geometry">
            <mxPoint x="300.5" y="60" as="sourcePoint" />
            <mxPoint x="460" y="60" as="targetPoint" />
          </mxGeometry>
        </mxCell>
        <mxCell id="ECVVcTKi_iceg_Oi6nhi-2" value="" style="endArrow=none;html=1;rounded=0;strokeWidth=0.3;" edge="1" parent="yorJfVh0kJ0Bfh7YAZNg-1">
          <mxGeometry width="50" height="50" relative="1" as="geometry">
            <mxPoint x="400" y="40" as="sourcePoint" />
            <mxPoint x="400" y="200" as="targetPoint" />
          </mxGeometry>
        </mxCell>
        <mxCell id="ECVVcTKi_iceg_Oi6nhi-3" value="" style="endArrow=none;dashed=1;html=1;rounded=0;strokeWidth=0.3;" edge="1" parent="yorJfVh0kJ0Bfh7YAZNg-1">
          <mxGeometry width="50" height="50" relative="1" as="geometry">
            <mxPoint x="420" y="200" as="sourcePoint" />
            <mxPoint x="420" y="40" as="targetPoint" />
          </mxGeometry>
        </mxCell>
        <mxCell id="ECVVcTKi_iceg_Oi6nhi-4" value="" style="endArrow=classic;html=1;rounded=0;strokeColor=#CC0000;" edge="1" parent="yorJfVh0kJ0Bfh7YAZNg-1">
          <mxGeometry width="50" height="50" relative="1" as="geometry">
            <mxPoint x="390" y="100.41" as="sourcePoint" />
            <mxPoint x="410" y="100.41" as="targetPoint" />
          </mxGeometry>
        </mxCell>
        <mxCell id="ECVVcTKi_iceg_Oi6nhi-5" value="" style="endArrow=classic;html=1;rounded=0;strokeColor=#CC0000;" edge="1" parent="yorJfVh0kJ0Bfh7YAZNg-1">
          <mxGeometry width="50" height="50" relative="1" as="geometry">
            <mxPoint x="350" y="100" as="sourcePoint" />
            <mxPoint x="370" y="100" as="targetPoint" />
          </mxGeometry>
        </mxCell>
        <mxCell id="ECVVcTKi_iceg_Oi6nhi-6" value="" style="endArrow=none;html=1;rounded=0;strokeWidth=0.3;" edge="1" parent="yorJfVh0kJ0Bfh7YAZNg-1">
          <mxGeometry width="50" height="50" relative="1" as="geometry">
            <mxPoint x="300" y="40" as="sourcePoint" />
            <mxPoint x="460" y="40" as="targetPoint" />
          </mxGeometry>
        </mxCell>
        <mxCell id="ECVVcTKi_iceg_Oi6nhi-7" value="" style="endArrow=none;html=1;rounded=0;strokeWidth=0.3;" edge="1" parent="yorJfVh0kJ0Bfh7YAZNg-1">
          <mxGeometry width="50" height="50" relative="1" as="geometry">
            <mxPoint x="440" y="40" as="sourcePoint" />
            <mxPoint x="440" y="200" as="targetPoint" />
          </mxGeometry>
        </mxCell>
        <mxCell id="ECVVcTKi_iceg_Oi6nhi-8" value="" style="endArrow=classic;html=1;rounded=0;strokeColor=#CC0000;" edge="1" parent="yorJfVh0kJ0Bfh7YAZNg-1">
          <mxGeometry width="50" height="50" relative="1" as="geometry">
            <mxPoint x="310" y="140" as="sourcePoint" />
            <mxPoint x="330" y="140" as="targetPoint" />
          </mxGeometry>
        </mxCell>
        <mxCell id="ECVVcTKi_iceg_Oi6nhi-9" value="" style="endArrow=classic;html=1;rounded=0;strokeColor=#CC0000;" edge="1" parent="yorJfVh0kJ0Bfh7YAZNg-1">
          <mxGeometry width="50" height="50" relative="1" as="geometry">
            <mxPoint x="310" y="100" as="sourcePoint" />
            <mxPoint x="330" y="100" as="targetPoint" />
          </mxGeometry>
        </mxCell>
        <mxCell id="ECVVcTKi_iceg_Oi6nhi-10" value="" style="endArrow=none;dashed=1;html=1;rounded=0;strokeWidth=0.3;" edge="1" parent="yorJfVh0kJ0Bfh7YAZNg-1">
          <mxGeometry width="50" height="50" relative="1" as="geometry">
            <mxPoint x="460" y="200" as="sourcePoint" />
            <mxPoint x="460" y="40" as="targetPoint" />
          </mxGeometry>
        </mxCell>
        <mxCell id="ECVVcTKi_iceg_Oi6nhi-11" value="" style="endArrow=classic;html=1;rounded=0;strokeColor=#CC0000;" edge="1" parent="yorJfVh0kJ0Bfh7YAZNg-1">
          <mxGeometry width="50" height="50" relative="1" as="geometry">
            <mxPoint x="430" y="140" as="sourcePoint" />
            <mxPoint x="450" y="140" as="targetPoint" />
          </mxGeometry>
        </mxCell>
        <mxCell id="ECVVcTKi_iceg_Oi6nhi-12" value="" style="endArrow=classic;html=1;rounded=0;strokeColor=#CC0000;" edge="1" parent="yorJfVh0kJ0Bfh7YAZNg-1">
          <mxGeometry width="50" height="50" relative="1" as="geometry">
            <mxPoint x="430" y="100" as="sourcePoint" />
            <mxPoint x="450" y="100" as="targetPoint" />
          </mxGeometry>
        </mxCell>
        <mxCell id="ECVVcTKi_iceg_Oi6nhi-13" value="" style="endArrow=classic;html=1;rounded=0;strokeColor=#CC0000;" edge="1" parent="yorJfVh0kJ0Bfh7YAZNg-1">
          <mxGeometry width="50" height="50" relative="1" as="geometry">
            <mxPoint x="390" y="60.41" as="sourcePoint" />
            <mxPoint x="410" y="60.41" as="targetPoint" />
          </mxGeometry>
        </mxCell>
        <mxCell id="ECVVcTKi_iceg_Oi6nhi-14" value="" style="endArrow=classic;html=1;rounded=0;strokeColor=#CC0000;" edge="1" parent="yorJfVh0kJ0Bfh7YAZNg-1">
          <mxGeometry width="50" height="50" relative="1" as="geometry">
            <mxPoint x="350" y="60" as="sourcePoint" />
            <mxPoint x="370" y="60" as="targetPoint" />
          </mxGeometry>
        </mxCell>
        <mxCell id="ECVVcTKi_iceg_Oi6nhi-15" value="" style="endArrow=classic;html=1;rounded=0;strokeColor=#CC0000;" edge="1" parent="yorJfVh0kJ0Bfh7YAZNg-1">
          <mxGeometry width="50" height="50" relative="1" as="geometry">
            <mxPoint x="310" y="60" as="sourcePoint" />
            <mxPoint x="330" y="60" as="targetPoint" />
          </mxGeometry>
        </mxCell>
        <mxCell id="ECVVcTKi_iceg_Oi6nhi-16" value="" style="endArrow=classic;html=1;rounded=0;strokeColor=#CC0000;" edge="1" parent="yorJfVh0kJ0Bfh7YAZNg-1">
          <mxGeometry width="50" height="50" relative="1" as="geometry">
            <mxPoint x="430" y="60" as="sourcePoint" />
            <mxPoint x="450" y="60" as="targetPoint" />
          </mxGeometry>
        </mxCell>
        <mxCell id="ECVVcTKi_iceg_Oi6nhi-17" value="" style="endArrow=none;html=1;rounded=0;strokeWidth=0.3;" edge="1" parent="yorJfVh0kJ0Bfh7YAZNg-1">
          <mxGeometry width="50" height="50" relative="1" as="geometry">
            <mxPoint x="300" y="200" as="sourcePoint" />
            <mxPoint x="460" y="200" as="targetPoint" />
          </mxGeometry>
        </mxCell>
        <mxCell id="ECVVcTKi_iceg_Oi6nhi-18" value="" style="endArrow=classic;html=1;rounded=0;strokeColor=#CC0000;" edge="1" parent="yorJfVh0kJ0Bfh7YAZNg-1">
          <mxGeometry width="50" height="50" relative="1" as="geometry">
            <mxPoint x="390" y="180.41" as="sourcePoint" />
            <mxPoint x="410" y="180.41" as="targetPoint" />
          </mxGeometry>
        </mxCell>
        <mxCell id="ECVVcTKi_iceg_Oi6nhi-19" value="" style="endArrow=classic;html=1;rounded=0;strokeColor=#CC0000;" edge="1" parent="yorJfVh0kJ0Bfh7YAZNg-1">
          <mxGeometry width="50" height="50" relative="1" as="geometry">
            <mxPoint x="350" y="180" as="sourcePoint" />
            <mxPoint x="370" y="180" as="targetPoint" />
          </mxGeometry>
        </mxCell>
        <mxCell id="ECVVcTKi_iceg_Oi6nhi-20" value="" style="endArrow=classic;html=1;rounded=0;strokeColor=#CC0000;" edge="1" parent="yorJfVh0kJ0Bfh7YAZNg-1">
          <mxGeometry width="50" height="50" relative="1" as="geometry">
            <mxPoint x="310" y="180" as="sourcePoint" />
            <mxPoint x="330" y="180" as="targetPoint" />
          </mxGeometry>
        </mxCell>
        <mxCell id="ECVVcTKi_iceg_Oi6nhi-21" value="" style="endArrow=classic;html=1;rounded=0;strokeColor=#CC0000;" edge="1" parent="yorJfVh0kJ0Bfh7YAZNg-1">
          <mxGeometry width="50" height="50" relative="1" as="geometry">
            <mxPoint x="430" y="180" as="sourcePoint" />
            <mxPoint x="450" y="180" as="targetPoint" />
          </mxGeometry>
        </mxCell>
      </root>
    </mxGraphModel>
  </diagram>
</mxfile>
